<?xml version="1.0" encoding="UTF-8"?>
<!DOCTYPE svg PUBLIC "-//W3C//DTD SVG 1.1//EN" "http://www.w3.org/Graphics/SVG/1.1/DTD/svg11.dtd">
<!-- Creator: CorelDRAW X7 -->
<svg xmlns="http://www.w3.org/2000/svg" xml:space="preserve" width="84.6666mm" height="67.7332mm" version="1.1" style="shape-rendering:geometricPrecision; text-rendering:geometricPrecision; image-rendering:optimizeQuality; fill-rule:evenodd; clip-rule:evenodd"
viewBox="0 0 8467 6773"
 xmlns:xlink="http://www.w3.org/1999/xlink">
 <defs>
  <style type="text/css">
   <![CDATA[
    .fil0 {fill:none}
    .fil3 {fill:#00A7B5}
    .fil2 {fill:#022B53}
    .fil1 {fill:url(#id0)}
   ]]>
  </style>
  <linearGradient id="id0" gradientUnits="userSpaceOnUse" x1="2418.75" y1="2884.2" x2="2418.75" y2="3889.13">
   <stop offset="0" style="stop-opacity:1; stop-color:#00A7B5"/>
   <stop offset="1" style="stop-opacity:1; stop-color:#002D72"/>
  </linearGradient>
 </defs>
 <g id="Layer_x0020_1">
  <metadata id="CorelCorpID_0Corel-Layer"/>
  <g id="_1003283752">
   <rect class="fil0" width="8467" height="6773"/>
   <g>
    <path class="fil1" d="M2899 3395c0,-161 -80,-304 -202,-391 -17,-12 -6,-39 11,-42 6,-2 12,0 17,3 134,96 221,253 221,430 0,208 -120,387 -294,473 -6,3 -13,3 -19,1 -15,-8 -19,-35 -1,-44 158,-78 267,-241 267,-430zm-338 -556c-30,-8 -61,-13 -92,-16 -20,-2 -25,-30 -12,-42 4,-4 10,-6 16,-5 113,10 224,51 320,124 1,1 2,2 3,3 26,19 50,42 73,66 4,4 6,10 5,16 -1,18 -26,31 -40,16 -76,-81 -171,-135 -272,-162l-1 0zm-7 1144c0,-1 0,-1 -1,-2l-6 -25 -21 -93 -11 -46 -5 -21c-9,-39 38,-46 46,-12l5 19 11 47 11 47 10 46 1 2c201,-62 360,-232 398,-453 26,-157 -13,-309 -98,-429 -17,-24 21,-52 38,-28 93,130 136,295 107,465 -43,250 -229,439 -459,499 -6,1 -12,0 -18,-4 -4,-3 -7,-7 -8,-12zm-67 -285l-5 -21 -3 -15c-9,-38 5,-76 36,-99l18 -13c25,-18 45,-42 58,-69 14,-27 21,-56 21,-87 0,-106 -86,-193 -193,-193 -92,0 -168,64 -188,149 -8,32 -55,28 -47,-8 23,-108 120,-189 235,-189 133,0 241,108 241,241 0,38 -9,75 -26,109 -17,33 -42,63 -73,85l-23 17c-12,10 -18,25 -14,40l4 18 6 26c8,35 -38,48 -47,9zm-258 -267c9,47 36,90 75,119l19 13c31,23 45,61 36,99l-4 15 -11 47 -10 46 -5 22c-8,33 -54,19 -47,-12l6 -23 11 -47 11 -47 4 -18c4,-15 -2,-30 -14,-40l-24 -17c-50,-37 -83,-90 -94,-150 -6,-32 41,-39 47,-7zm77 456l-16 69 -6 25c0,2 -1,3 -1,5 -2,3 -4,7 -8,9 -5,4 -11,5 -18,4 -424,-110 -603,-611 -352,-964 31,-46 101,-108 145,-142 92,-67 202,-110 322,-119 6,0 12,1 16,6 13,12 8,40 -13,42 -110,8 -212,47 -296,109 -65,47 -112,93 -156,162 -197,319 -41,741 321,852l0 -2 10 -40 6 -28c7,-31 55,-25 46,12zm-43 -736c-80,51 -134,141 -134,244 0,99 50,186 125,238 15,10 10,36 -6,43 -6,2 -13,1 -19,-3 -30,-20 -56,-45 -78,-74 -10,-12 -19,-26 -26,-39 -28,-49 -43,-105 -43,-165 0,-122 64,-228 161,-287 13,-9 27,-16 42,-22 41,-18 86,-28 134,-28 17,0 34,1 50,4 7,1 12,4 16,10 9,15 -4,40 -23,37 -14,-2 -29,-3 -43,-3 -40,0 -79,8 -114,23 -14,6 -28,13 -42,22zm299 -61c115,54 194,170 194,305 0,116 -58,217 -147,278 -6,4 -13,5 -20,2 -16,-6 -20,-32 -5,-42 75,-52 124,-139 124,-238 0,-116 -68,-215 -166,-262 -18,-9 -14,-37 2,-43 6,-3 12,-3 18,0zm94 -57c117,78 195,211 195,362 0,162 -89,303 -221,377 -6,3 -12,4 -19,1 -15,-7 -19,-34 -3,-43 117,-66 195,-191 195,-335 0,-134 -68,-252 -172,-321 -13,-9 -27,-17 -41,-24 -52,-25 -110,-40 -171,-40 -41,0 -80,7 -117,18 -19,7 -35,-17 -28,-33 2,-6 7,-10 13,-12 41,-13 86,-20 132,-20 70,0 137,17 196,47 14,7 28,15 41,23zm-531 610c29,35 65,64 104,87 17,9 13,36 -3,43 -6,3 -13,2 -19,-1 -45,-25 -85,-59 -119,-98 -4,-5 -5,-11 -5,-17 2,-17 28,-30 42,-14zm99 -580c-114,67 -190,191 -190,332 0,64 16,124 43,177 13,25 -28,49 -42,22 -31,-59 -48,-127 -48,-199 0,-159 85,-298 213,-373 5,-3 11,-4 17,-2 17,5 25,33 7,43zm-285 347c6,182 113,339 267,415 17,9 14,36 -2,44 -6,2 -12,2 -18,-1 -170,-83 -288,-256 -294,-457 -1,-29 46,-29 47,-1zm683 -450c-61,-29 -130,-45 -203,-45 -241,0 -440,177 -475,409 -4,27 -51,23 -47,-7 38,-254 257,-450 522,-450 80,0 156,18 224,50 6,3 10,8 12,14 5,17 -14,38 -33,29z"/>
    <path class="fil2" d="M3189 3215c-1,62 21,116 67,161 46,46 100,68 162,66 60,-3 111,-25 153,-69 42,-44 63,-96 63,-157 0,-63 -23,-117 -68,-162 -45,-45 -99,-67 -161,-64 -63,2 -116,27 -159,76l0 -217 -57 0 0 363 0 3zm228 170c-47,2 -87,-15 -121,-49 -34,-36 -50,-78 -48,-125 0,-46 17,-84 48,-117 31,-32 69,-48 113,-48 46,0 85,16 117,49 32,32 49,71 49,116 1,47 -14,86 -45,120 -31,34 -68,52 -113,54zm710 -167l0 -3c2,-60 -19,-112 -61,-156 -42,-44 -94,-67 -154,-69 -63,-3 -117,19 -162,64 -44,45 -67,99 -67,162 0,61 21,113 63,157 41,44 92,66 152,69 68,2 126,-24 173,-78l0 68 56 0 0 -214zm-337 -124c33,-32 72,-48 118,-48 44,0 82,16 113,48 31,33 47,71 48,117 1,47 -15,89 -49,125 -33,34 -74,51 -121,49 -44,-2 -82,-20 -113,-54 -31,-34 -46,-74 -45,-120 1,-46 17,-84 49,-117zm453 80c0,-28 5,-50 15,-67 6,-10 17,-22 34,-36 16,-13 38,-21 65,-22l0 -57c-23,-1 -45,4 -67,16 -23,13 -42,30 -54,54l0 -62 -53 0 0 432 60 0 0 -258zm214 0c0,-28 5,-50 15,-67 6,-10 17,-22 34,-36 16,-13 38,-21 65,-22l0 -57c-23,-1 -45,4 -67,16 -23,13 -41,30 -53,54l0 -62 -54 0 0 432 60 0 0 -258zm215 -325l-56 0 0 101 56 0 0 -101zm0 151l-56 0 0 432 56 0 0 -432zm511 305l-65 0c-33,53 -83,80 -150,81 -47,0 -88,-16 -122,-50 -34,-34 -52,-74 -52,-121 0,-47 18,-88 55,-122 36,-33 75,-49 120,-48 67,1 116,30 148,85l66 0 -9 -18c-16,-36 -43,-65 -80,-88 -39,-24 -82,-37 -127,-36 -64,1 -118,24 -164,69 -46,45 -68,98 -67,161 1,62 23,115 69,158 45,43 99,65 162,66 94,0 165,-41 210,-125l6 -12zm473 -87l0 -3c3,-60 -18,-112 -60,-156 -43,-44 -94,-67 -155,-69 -62,-3 -116,19 -161,64 -44,45 -67,99 -67,162 0,61 21,113 63,157 41,44 92,66 152,69 68,2 125,-24 172,-78l0 68 56 0 0 -214zm-336 -124c33,-32 71,-48 118,-48 44,0 81,16 112,48 31,33 48,71 49,117 1,47 -15,89 -49,125 -34,34 -74,51 -121,49 -44,-2 -82,-20 -113,-54 -31,-34 -46,-74 -45,-120 1,-46 17,-84 49,-117zm849 -243l-57 0 0 217c-42,-48 -95,-74 -159,-76 -62,-2 -116,20 -160,65 -45,45 -68,99 -68,162 0,61 21,113 62,157 42,44 93,66 153,68 62,2 116,-20 162,-64 46,-46 68,-100 67,-162l0 -367zm-341 483c-31,-34 -46,-74 -45,-120 1,-46 16,-84 49,-117 33,-32 72,-49 117,-48 45,0 82,16 113,48 31,33 48,71 49,117 1,47 -15,88 -49,124 -33,35 -73,51 -121,49 -45,-1 -82,-19 -113,-53zm777 -44c-30,62 -78,94 -146,95 -44,1 -82,-14 -115,-42 -32,-28 -50,-64 -55,-107l388 0 0 -31c0,-54 -21,-103 -62,-146 -42,-44 -92,-67 -149,-71 -65,-4 -120,18 -168,65 -47,46 -69,102 -68,167 1,61 24,113 70,158 45,44 97,65 157,64 46,0 89,-14 127,-41 39,-28 66,-65 82,-111l-61 0zm-316 -107c9,-41 27,-74 59,-99 31,-25 67,-38 109,-38 41,1 77,14 106,39 30,25 49,58 57,98l-331 0z"/>
    <path class="fil3" d="M3377 3807l-27 0c-14,23 -35,34 -63,35 -20,0 -37,-7 -52,-21 -14,-14 -21,-31 -21,-51 0,-20 7,-37 23,-51 15,-14 31,-21 50,-21 28,1 49,13 63,36l27 0 -4 -8c-6,-15 -18,-27 -33,-36 -17,-11 -35,-16 -54,-15 -26,0 -49,10 -69,29 -19,18 -28,41 -28,67 1,26 10,48 29,66 19,18 42,28 68,28 40,0 70,-17 89,-52l2 -6zm276 -127l-26 0 -61 144 -58 -144 -26 0 69 175 -27 69 26 0 103 -244zm111 90c-1,26 8,49 28,68 19,19 42,28 68,27 25,-1 46,-10 64,-29 17,-18 26,-40 26,-66 0,-26 -9,-49 -28,-68 -19,-19 -42,-28 -68,-27 -26,1 -49,12 -66,32l0 -91 -24 0 0 153 0 1zm95 71c-19,1 -36,-6 -50,-20 -15,-15 -21,-33 -21,-53 1,-19 8,-35 21,-49 13,-14 29,-20 47,-20 19,0 36,7 49,20 14,14 21,30 21,49 0,20 -6,36 -19,51 -13,14 -29,21 -48,22zm362 -40c-13,27 -33,40 -62,40 -18,1 -34,-6 -48,-17 -13,-12 -21,-27 -23,-45l163 0 0 -13c0,-23 -9,-43 -26,-62 -18,-18 -39,-28 -63,-29 -27,-2 -50,7 -70,27 -20,19 -29,43 -29,70 1,26 10,48 29,66 20,19 41,28 66,27 20,0 38,-6 54,-17 16,-12 28,-27 34,-47l-25 0zm-133 -45c4,-17 11,-31 24,-41 14,-11 29,-16 46,-16 18,0 33,6 45,16 12,11 20,24 24,41l-139 0zm300 -4c0,-11 2,-20 6,-27 2,-5 7,-10 14,-15 7,-6 16,-9 27,-10l0 -24c-9,0 -18,2 -27,7 -10,5 -18,13 -23,22l0 -25 -23 0 0 181 26 0 0 -109zm342 55l-25 0c0,16 5,29 15,40 11,11 24,18 39,19 16,1 31,-5 44,-17 12,-12 18,-26 17,-42 -2,-24 -15,-40 -39,-48l-21 -7c-16,-6 -24,-15 -23,-28 0,-14 12,-25 25,-25 14,0 27,9 27,21l0 5 25 0 0 -6c-1,-13 -7,-23 -17,-32 -11,-8 -22,-12 -35,-12 -14,1 -26,6 -36,16 -10,10 -15,22 -14,36 1,23 12,39 35,46l21 6c18,6 27,16 26,32 0,9 -2,16 -8,22 -6,6 -14,9 -24,9 -8,0 -15,-3 -22,-10 -6,-6 -10,-13 -10,-19l0 -6zm391 -37c0,-25 -8,-47 -26,-66 -17,-18 -39,-28 -64,-29 -26,-1 -49,9 -67,28 -19,18 -29,41 -29,68 0,25 9,47 26,65 18,19 39,28 64,29 27,1 49,-8 68,-27 19,-19 28,-42 28,-68zm-143 49c-13,-14 -19,-31 -18,-50 0,-20 7,-36 20,-50 14,-13 30,-20 50,-20 18,0 34,7 47,20 13,14 20,30 20,49 1,20 -6,38 -20,53 -14,14 -31,21 -51,20 -19,0 -35,-8 -48,-22zm284 -203l-24 0 0 245 24 0 0 -245zm279 64l-24 0 0 106c0,15 -6,28 -17,39 -11,11 -24,17 -39,17 -15,0 -28,-6 -39,-17 -11,-11 -16,-24 -16,-39l0 -106 -25 0 0 103c0,24 8,43 23,59 15,15 34,23 57,23 24,0 43,-8 58,-23 15,-16 22,-35 22,-59l0 -103zm185 165c-27,0 -41,-14 -41,-41l0 -102 41 0 0 -22 -41 0 0 -64 -25 0 0 193c0,37 22,56 66,56l0 -20zm137 -229l-23 0 0 42 23 0 0 -42zm0 64l-23 0 0 181 23 0 0 -181zm305 90c0,-25 -9,-47 -26,-66 -18,-18 -39,-28 -64,-29 -26,-1 -49,9 -68,28 -18,18 -28,41 -28,68 0,25 9,47 26,65 18,19 39,28 64,29 26,1 49,-8 68,-27 19,-19 28,-42 28,-68zm-143 49c-13,-14 -19,-31 -18,-50 0,-20 7,-36 20,-50 14,-13 30,-20 49,-20 19,0 34,7 47,20 14,14 21,30 21,49 0,20 -6,38 -21,53 -13,14 -30,21 -50,20 -19,0 -35,-8 -48,-22zm420 -61c0,-24 -8,-43 -23,-59 -16,-15 -35,-23 -58,-23 -23,0 -42,8 -57,23 -15,16 -23,35 -23,59l0 103 25 0 0 -106c0,-15 5,-28 16,-39 11,-12 25,-17 39,-17 15,0 28,5 39,17 11,11 17,24 17,39l0 106 25 0 0 -103zm142 49l-25 0c0,16 5,29 15,40 11,11 23,18 39,19 16,1 31,-5 43,-17 13,-12 19,-26 18,-42 -2,-24 -15,-40 -39,-48l-21 -7c-16,-6 -24,-15 -23,-28 0,-14 11,-25 25,-25 14,0 27,9 27,21l0 5 25 0 0 -6c-1,-13 -7,-23 -18,-32 -10,-8 -22,-12 -34,-12 -14,1 -26,6 -36,16 -10,10 -15,22 -14,36 1,23 12,39 35,46l21 6c18,6 27,16 26,32 0,9 -3,16 -8,22 -6,6 -14,9 -24,9 -8,0 -15,-3 -22,-10 -7,-6 -10,-13 -10,-19l0 -6z"/>
    <rect class="fil3" x="3189" y="3543" width="3487.49" height="23.6569"/>
   </g>
  </g>
 </g>
</svg>
