<svg width="273" height="121" viewBox="0 0 273 121" fill="none" xmlns="http://www.w3.org/2000/svg">
<path d="M86.1428 59.6387C85.4799 59.8195 84.4254 60.0002 82.9791 60.181C81.5931 60.3618 80.2071 60.4522 78.8211 60.4522C77.4351 60.4522 76.1997 60.3317 75.115 60.0906C74.0906 59.9098 73.2168 59.5483 72.4936 59.0059C71.7705 58.4636 71.2281 57.7103 70.8666 56.7461C70.505 55.7819 70.3242 54.5165 70.3242 52.9497V5.22271C70.9871 5.10218 72.0417 4.95153 73.4879 4.77075C74.9342 4.5297 76.3202 4.40918 77.646 4.40918C79.032 4.40918 80.2372 4.5297 81.2616 4.77075C82.3464 4.95153 83.2503 5.3131 83.9734 5.85545C84.6965 6.3978 85.2389 7.15107 85.6005 8.11525C85.962 9.07943 86.1428 10.3449 86.1428 11.9117V59.6387Z" fill="#1C3C2E"/>
<path d="M147.491 58.102C146.647 58.9457 145.412 59.5784 143.785 60.0002C142.218 60.4823 140.32 60.7234 138.09 60.7234C135.86 60.7234 133.751 60.3919 131.763 59.7291C129.774 59.0662 128.147 57.4693 126.881 54.9383L117.933 36.6791C117.029 34.811 116.215 33.0634 115.492 31.4364C114.769 29.7491 113.985 27.8207 113.142 25.6513L112.599 25.7417C112.84 28.9958 112.961 32.3102 112.961 35.6848C113.021 39.0594 113.051 42.3738 113.051 45.6279V59.6387C112.388 59.8195 111.364 60.0002 109.978 60.181C108.652 60.3618 107.327 60.4522 106.001 60.4522C104.675 60.4522 103.5 60.3618 102.476 60.181C101.451 60.0002 100.607 59.6387 99.9445 59.0963C99.2817 58.554 98.7694 57.8308 98.4079 56.9269C98.0463 55.9627 97.8655 54.7274 97.8655 53.2208V8.02485C98.7092 6.81963 100.005 5.91571 101.752 5.3131C103.5 4.71049 105.368 4.40918 107.357 4.40918C109.586 4.40918 111.695 4.77075 113.684 5.49388C115.733 6.15676 117.36 7.72355 118.565 10.1943L127.604 28.4534C128.508 30.3215 129.322 32.0992 130.045 33.7866C130.768 35.4136 131.552 37.3119 132.395 39.4813L132.847 39.3909C132.606 36.1368 132.456 32.8826 132.395 29.6285C132.335 26.3744 132.305 23.1203 132.305 19.8662V5.22271C132.968 5.04192 133.962 4.86114 135.288 4.68035C136.674 4.49957 138.03 4.40918 139.355 4.40918C142.007 4.40918 144.026 4.89127 145.412 5.85545C146.798 6.75937 147.491 8.68773 147.491 11.6405V58.102Z" fill="#1C3C2E"/>
<path d="M174.233 40.1568V60.1334C173.57 60.3142 172.516 60.495 171.069 60.6758C169.623 60.8565 168.207 60.9469 166.821 60.9469C165.435 60.9469 164.2 60.8264 163.115 60.5854C162.091 60.4046 161.217 60.043 160.494 59.5007C159.77 58.9583 159.228 58.205 158.867 57.2409C158.505 56.2767 158.324 55.0112 158.324 53.4444V5.71745C158.987 5.59692 160.042 5.44627 161.488 5.26549C162.934 5.02444 164.32 4.90392 165.646 4.90392C167.032 4.90392 168.237 5.02444 169.262 5.26549C170.346 5.44627 171.25 5.80784 171.973 6.35019C172.697 6.89254 173.239 7.64581 173.6 8.60999C173.962 9.57417 174.143 10.8397 174.143 12.4065V26.7788L192.944 5.17509C197.042 5.17509 199.965 5.95849 201.712 7.52528C203.52 9.03182 204.424 10.8397 204.424 12.9488C204.424 14.5156 204.032 15.992 203.249 17.378C202.466 18.764 201.2 20.3308 199.453 22.0784L188.154 33.3774C189.66 35.0647 191.227 36.8123 192.854 38.6201C194.541 40.428 196.168 42.2057 197.735 43.9532C199.362 45.6406 200.899 47.2676 202.345 48.8344C203.852 50.4012 205.147 51.7571 206.232 52.9021C206.232 54.2278 205.991 55.4029 205.509 56.4273C205.027 57.4518 204.364 58.3256 203.52 59.0487C202.737 59.7718 201.833 60.3142 200.808 60.6758C199.784 61.0373 198.699 61.2181 197.554 61.2181C195.084 61.2181 193.065 60.6155 191.498 59.4103C189.931 58.1448 188.425 56.6684 186.978 54.9811L174.233 40.1568Z" fill="#1C3C2E"/>
<path fill-rule="evenodd" clip-rule="evenodd" d="M211.629 20.5417C210.182 24.1574 209.459 28.3154 209.459 33.0158C209.459 37.6559 210.182 41.7838 211.629 45.3995C213.075 49.0152 215.064 52.0584 217.595 54.5291C220.125 56.9998 223.139 58.8981 226.634 60.2238C230.129 61.4893 233.925 62.122 238.023 62.122C242.121 62.122 245.917 61.4893 249.412 60.2238C252.908 58.9583 255.921 57.1203 258.452 54.7099C261.043 52.2392 263.062 49.196 264.508 45.5803C265.954 41.9044 266.677 37.7162 266.677 33.0158C266.677 28.3154 265.924 24.1574 264.418 20.5417C262.971 16.926 260.953 13.913 258.361 11.5025C255.77 9.03182 252.727 7.16372 249.232 5.89823C245.797 4.63274 242.061 4 238.023 4C233.986 4 230.219 4.63274 226.724 5.89823C223.289 7.16372 220.276 9.03182 217.685 11.5025C215.154 13.913 213.135 16.926 211.629 20.5417ZM249.558 33.9951C249.558 40.346 244.409 45.4951 238.058 45.4951C231.707 45.4951 226.558 40.346 226.558 33.9951C226.558 27.6442 231.707 22.4951 238.058 22.4951C244.409 22.4951 249.558 27.6442 249.558 33.9951Z" fill="#1C3C2E"/>
<path d="M34.0618 8.0608C29.6632 7.7563 25.2609 8.59928 21.302 10.5041C17.3432 12.4089 13.969 15.3076 11.5223 18.9057C9.07554 22.5038 7.64353 26.673 7.37173 30.9897C7.09992 35.3064 7.99799 39.617 9.97468 43.4831C11.9514 47.3488 14.9363 50.6329 18.6261 53.001C22.3158 55.3691 26.579 56.7368 30.9824 56.9657C35.3857 57.1943 39.7724 56.2759 43.6966 54.303C47.6204 52.3304 50.9423 49.3739 53.3242 45.7343C47.2115 32.0496 38.0199 29.634 25.7496 38.4875" stroke="#1C3C2E" stroke-width="14.08" stroke-linecap="round"/>
<path d="M3.67 93.2621H6.13V104.062C6.01 104.102 5.85 104.142 5.65 104.182C5.45 104.242 5.23 104.272 4.99 104.272C4.55 104.272 4.22 104.182 4 104.002C3.78 103.822 3.67 103.542 3.67 103.162V93.2621ZM6.13 95.2721H3.67V85.9421C3.77 85.9021 3.92 85.8621 4.12 85.8221C4.34 85.7621 4.57 85.7321 4.81 85.7321C5.25 85.7321 5.58 85.8221 5.8 86.0021C6.02 86.1621 6.13 86.4421 6.13 86.8421V95.2721ZM15.49 93.2621H17.95V104.062C17.83 104.102 17.67 104.142 17.47 104.182C17.27 104.242 17.05 104.272 16.81 104.272C16.37 104.272 16.04 104.182 15.82 104.002C15.6 103.822 15.49 103.542 15.49 103.162V93.2621ZM17.95 95.2721H15.49V85.9421C15.59 85.9021 15.74 85.8621 15.94 85.8221C16.16 85.7621 16.39 85.7321 16.63 85.7321C17.07 85.7321 17.4 85.8221 17.62 86.0021C17.84 86.1621 17.95 86.4421 17.95 86.8421V95.2721ZM16.78 95.9021H5.14V93.8621H16.78V95.9021ZM28.2489 104.512C26.7489 104.512 25.4689 104.242 24.4089 103.702C23.3489 103.142 22.5389 102.362 21.9789 101.362C21.4389 100.342 21.1689 99.1621 21.1689 97.8221V95.3621H23.5989V97.6121C23.5989 99.2121 24.0389 100.422 24.9189 101.242C25.8189 102.042 26.9289 102.442 28.2489 102.442C29.5689 102.442 30.6689 102.042 31.5489 101.242C32.4489 100.422 32.8989 99.2121 32.8989 97.6121V95.3621H35.3589V97.8221C35.3589 99.1621 35.0789 100.342 34.5189 101.362C33.9789 102.362 33.1789 103.142 32.1189 103.702C31.0589 104.242 29.7689 104.512 28.2489 104.512ZM23.5989 96.5921H21.1689V85.9421C21.2689 85.9021 21.4189 85.8621 21.6189 85.8221C21.8389 85.7621 22.0689 85.7321 22.3089 85.7321C22.7489 85.7321 23.0689 85.8221 23.2689 86.0021C23.4889 86.1621 23.5989 86.4421 23.5989 86.8421V96.5921ZM35.3589 96.5921H32.8989V85.9421C32.9989 85.9021 33.1489 85.8621 33.3489 85.8221C33.5689 85.7621 33.7989 85.7321 34.0389 85.7321C34.4789 85.7321 34.8089 85.8221 35.0289 86.0021C35.2489 86.1621 35.3589 86.4421 35.3589 86.8421V96.5921ZM48.9613 99.3821C48.8213 99.4821 48.6313 99.5721 48.3913 99.6521C48.1713 99.7321 47.9213 99.7721 47.6413 99.7721C47.3213 99.7721 47.0313 99.7221 46.7713 99.6221C46.5313 99.5221 46.3613 99.3621 46.2613 99.1421C45.2013 96.9021 44.2713 94.8521 43.4713 92.9921C42.6913 91.1321 42.0613 89.5921 41.5813 88.3721H41.4613C41.4013 89.8721 41.3313 91.2721 41.2513 92.5721C41.1913 93.8721 41.1213 95.1321 41.0413 96.3521C40.9613 97.5521 40.8813 98.7921 40.8013 100.072C40.7413 101.332 40.6613 102.682 40.5613 104.122C40.4413 104.162 40.2813 104.202 40.0813 104.242C39.9013 104.282 39.7013 104.302 39.4813 104.302C39.0413 104.302 38.7313 104.212 38.5513 104.032C38.3713 103.832 38.2813 103.572 38.2813 103.252C38.2813 103.012 38.3013 102.462 38.3413 101.602C38.4013 100.722 38.4613 99.6521 38.5213 98.3921C38.6013 97.1321 38.6913 95.7921 38.7913 94.3721C38.8913 92.9321 38.9913 91.5221 39.0913 90.1421C39.2113 88.7421 39.3213 87.4821 39.4213 86.3621C39.5813 86.2221 39.8113 86.0921 40.1113 85.9721C40.4113 85.8521 40.7513 85.7921 41.1313 85.7921C41.5913 85.7921 41.9813 85.8821 42.3013 86.0621C42.6213 86.2421 42.8713 86.5221 43.0513 86.9021C43.5713 87.9221 44.0913 89.0321 44.6113 90.2321C45.1313 91.4321 45.6413 92.6321 46.1413 93.8321C46.6413 95.0321 47.1213 96.1621 47.5813 97.2221H47.7013C48.5813 95.1021 49.4513 93.0621 50.3113 91.1021C51.1913 89.1421 51.9313 87.4721 52.5313 86.0921C52.7113 85.9921 52.9413 85.9221 53.2213 85.8821C53.5013 85.8221 53.7613 85.7921 54.0013 85.7921C54.4613 85.7921 54.8213 85.8721 55.0813 86.0321C55.3613 86.1721 55.5413 86.4121 55.6213 86.7521C55.7013 87.0921 55.7913 87.6721 55.8913 88.4921C55.9913 89.3121 56.0913 90.2821 56.1913 91.4021C56.2913 92.5021 56.3813 93.6621 56.4613 94.8821C56.5613 96.1021 56.6513 97.3021 56.7313 98.4821C56.8113 99.6621 56.8813 100.732 56.9413 101.692C57.0213 102.632 57.0713 103.382 57.0913 103.942C56.9113 104.062 56.7213 104.152 56.5213 104.212C56.3213 104.272 56.0913 104.302 55.8313 104.302C55.5313 104.302 55.2613 104.232 55.0213 104.092C54.8013 103.932 54.6713 103.652 54.6313 103.252C54.5113 101.312 54.3913 99.4021 54.2713 97.5221C54.1713 95.6221 54.0813 93.8821 54.0013 92.3021C53.9213 90.7221 53.8513 89.4321 53.7913 88.4321H53.6713C53.2313 89.5321 52.6313 90.9521 51.8713 92.6921C51.1113 94.4121 50.1413 96.6421 48.9613 99.3821ZM66.306 87.7721H66.186C65.886 88.6121 65.526 89.6121 65.106 90.7721C64.706 91.9321 64.286 93.1321 63.846 94.3721C63.426 95.5921 63.026 96.7321 62.646 97.7921L62.496 98.2421C62.376 98.6021 62.226 99.0521 62.046 99.5921C61.866 100.132 61.676 100.702 61.476 101.302C61.276 101.882 61.086 102.432 60.906 102.952C60.726 103.452 60.586 103.862 60.486 104.182C60.346 104.242 60.196 104.282 60.036 104.302C59.896 104.342 59.716 104.362 59.496 104.362C59.176 104.362 58.886 104.282 58.626 104.122C58.386 103.942 58.266 103.662 58.266 103.282C58.266 103.102 58.296 102.922 58.356 102.742C58.416 102.542 58.486 102.332 58.566 102.112C58.806 101.432 59.096 100.602 59.436 99.6221C59.796 98.6421 60.186 97.5721 60.606 96.4121C61.026 95.2521 61.466 94.0621 61.926 92.8421C62.386 91.6221 62.836 90.4321 63.276 89.2721C63.716 88.1121 64.126 87.0521 64.506 86.0921C64.666 86.0121 64.906 85.9321 65.226 85.8521C65.546 85.7721 65.876 85.7321 66.216 85.7321C66.616 85.7321 66.996 85.7921 67.356 85.9121C67.736 86.0321 67.976 86.2321 68.076 86.5121C68.556 87.6721 69.066 88.9921 69.606 90.4721C70.166 91.9321 70.726 93.4621 71.286 95.0621C71.846 96.6421 72.376 98.1821 72.876 99.6821C73.396 101.182 73.856 102.542 74.256 103.762C74.116 103.942 73.926 104.082 73.686 104.182C73.466 104.302 73.216 104.362 72.936 104.362C72.556 104.362 72.266 104.282 72.066 104.122C71.866 103.942 71.696 103.652 71.556 103.252L69.906 98.3621L69.666 97.5221C69.266 96.3021 68.846 95.0721 68.406 93.8321C67.986 92.5921 67.586 91.4421 67.206 90.3821C66.846 89.3221 66.546 88.4521 66.306 87.7721ZM61.326 99.2621L62.106 97.2521H70.476L70.956 99.2621H61.326ZM75.6899 87.9521L77.7299 87.7721C77.8099 88.3921 77.8799 89.1221 77.9399 89.9621C77.9999 90.8021 78.0399 91.6721 78.0599 92.5721C78.0999 93.4521 78.1199 94.2921 78.1199 95.0921V104.062C78.0199 104.102 77.8599 104.142 77.6399 104.182C77.4399 104.242 77.2299 104.272 77.0099 104.272C76.5699 104.272 76.2399 104.192 76.0199 104.032C75.7999 103.852 75.6899 103.572 75.6899 103.192V87.9521ZM90.1499 102.052L88.0799 102.232C87.8799 100.552 87.7599 98.8421 87.7199 97.1021C87.6999 95.3421 87.6899 93.6421 87.6899 92.0021V85.9421C87.8099 85.9021 87.9699 85.8621 88.1699 85.8221C88.3699 85.7621 88.5899 85.7321 88.8299 85.7321C89.2699 85.7321 89.5999 85.8221 89.8199 86.0021C90.0399 86.1621 90.1499 86.4321 90.1499 86.8121V102.052ZM90.1499 101.152V103.792C89.9699 103.932 89.7399 104.052 89.4599 104.152C89.1799 104.252 88.8699 104.302 88.5299 104.302C88.0499 104.302 87.6399 104.212 87.2999 104.032C86.9599 103.832 86.6499 103.482 86.3699 102.982L80.6699 93.3821C80.3699 92.8421 80.0399 92.2521 79.6799 91.6121C79.3199 90.9521 78.9799 90.3321 78.6599 89.7521C78.3399 89.1521 78.0899 88.6621 77.9099 88.2821L75.6899 88.8521V86.2421C75.8499 86.0821 76.0699 85.9521 76.3499 85.8521C76.6499 85.7521 76.9699 85.7021 77.3099 85.7021C77.7899 85.7021 78.1999 85.8021 78.5399 86.0021C78.8799 86.1821 79.1899 86.5221 79.4699 87.0221L85.1999 96.6221C85.5199 97.1621 85.8499 97.7621 86.1899 98.4221C86.5499 99.0621 86.8799 99.6821 87.1799 100.282C87.4799 100.862 87.7199 101.342 87.8999 101.722L90.1499 101.152ZM99.7305 95.5721H102.64C104.24 95.5721 105.48 95.2421 106.36 94.5821C107.24 93.9021 107.68 92.8821 107.68 91.5221C107.68 90.1621 107.25 89.1721 106.39 88.5521C105.55 87.9121 104.34 87.5921 102.76 87.5921C102.22 87.5921 101.68 87.6221 101.14 87.6821C100.62 87.7221 100.15 87.7821 99.7305 87.8621V95.5721ZM102.79 97.6121H97.3005V87.2021C97.3005 86.8821 97.3805 86.6421 97.5405 86.4821C97.7205 86.3021 97.9705 86.1621 98.2905 86.0621C98.8705 85.8821 99.5705 85.7521 100.39 85.6721C101.23 85.5921 102.04 85.5521 102.82 85.5521C105.36 85.5521 107.21 86.0921 108.37 87.1721C109.55 88.2321 110.14 89.6721 110.14 91.4921C110.14 92.7321 109.87 93.8121 109.33 94.7321C108.81 95.6521 108.01 96.3621 106.93 96.8621C105.85 97.3621 104.47 97.6121 102.79 97.6121ZM97.3005 96.4421H99.7605V104.062C99.6405 104.102 99.4805 104.142 99.2805 104.182C99.0805 104.242 98.8605 104.272 98.6205 104.272C98.1805 104.272 97.8505 104.182 97.6305 104.002C97.4105 103.822 97.3005 103.542 97.3005 103.162V96.4421ZM112.222 93.1421H114.652V103.882C114.572 103.902 114.422 103.952 114.202 104.032C113.982 104.092 113.762 104.122 113.542 104.122C113.142 104.122 112.822 104.002 112.582 103.762C112.342 103.502 112.222 103.182 112.222 102.802V93.1421ZM114.652 96.6821L112.222 96.6521V87.2021C112.222 86.8021 112.342 86.4821 112.582 86.2421C112.822 86.0021 113.142 85.8821 113.542 85.8821C113.762 85.8821 113.982 85.9121 114.202 85.9721C114.422 86.0321 114.572 86.0821 114.652 86.1221V96.6821ZM113.542 95.7821V93.7421H122.572C122.632 93.8221 122.692 93.9521 122.752 94.1321C122.812 94.3121 122.842 94.5021 122.842 94.7021C122.842 95.0221 122.762 95.2821 122.602 95.4821C122.442 95.6821 122.212 95.7821 121.912 95.7821H113.542ZM113.542 104.122V102.082H123.652C123.712 102.162 123.772 102.292 123.832 102.472C123.892 102.632 123.922 102.822 123.922 103.042C123.922 103.362 123.842 103.622 123.682 103.822C123.522 104.022 123.292 104.122 122.992 104.122H113.542ZM113.542 87.9521V85.8821H123.502C123.562 85.9621 123.622 86.0921 123.682 86.2721C123.742 86.4521 123.772 86.6421 123.772 86.8421C123.772 87.1621 123.692 87.4321 123.532 87.6521C123.372 87.8521 123.142 87.9521 122.842 87.9521H113.542ZM128.489 95.1821H131.939C133.419 95.1821 134.579 94.8621 135.419 94.2221C136.259 93.5821 136.679 92.6321 136.679 91.3721C136.679 90.1321 136.239 89.1921 135.359 88.5521C134.479 87.9121 133.219 87.5921 131.579 87.5921C131.039 87.5921 130.489 87.6221 129.929 87.6821C129.389 87.7221 128.909 87.7821 128.489 87.8621V95.1821ZM131.939 97.2221H126.059V87.2021C126.059 86.8821 126.139 86.6421 126.299 86.4821C126.479 86.3021 126.729 86.1621 127.049 86.0621C127.629 85.8821 128.339 85.7521 129.179 85.6721C130.039 85.5921 130.869 85.5521 131.669 85.5521C134.169 85.5521 136.039 86.0621 137.279 87.0821C138.519 88.1021 139.139 89.5321 139.139 91.3721C139.139 92.5521 138.869 93.5821 138.329 94.4621C137.789 95.3421 136.989 96.0221 135.929 96.5021C134.869 96.9821 133.539 97.2221 131.939 97.2221ZM131.999 96.4421L133.799 95.5421C134.359 96.2421 134.939 96.9721 135.539 97.7321C136.139 98.4921 136.719 99.2321 137.279 99.9521C137.839 100.672 138.339 101.322 138.779 101.902C139.219 102.462 139.559 102.902 139.799 103.222C139.719 103.562 139.539 103.832 139.259 104.032C138.999 104.232 138.729 104.332 138.449 104.332C138.109 104.332 137.829 104.252 137.609 104.092C137.389 103.912 137.159 103.662 136.919 103.342L131.999 96.4421ZM126.059 96.5621H128.519V104.062C128.399 104.102 128.239 104.142 128.039 104.182C127.839 104.242 127.619 104.272 127.379 104.272C126.939 104.272 126.609 104.182 126.389 104.002C126.169 103.822 126.059 103.542 126.059 103.162V96.5621ZM144.055 96.7421L141.625 96.7121V87.2021C141.625 86.8021 141.745 86.4821 141.985 86.2421C142.225 86.0021 142.545 85.8821 142.945 85.8821C143.165 85.8821 143.385 85.9121 143.605 85.9721C143.825 86.0321 143.975 86.0821 144.055 86.1221V96.7421ZM142.945 96.2621V94.1921H151.855C151.915 94.2921 151.975 94.4321 152.035 94.6121C152.095 94.7721 152.125 94.9521 152.125 95.1521C152.125 95.4721 152.045 95.7421 151.885 95.9621C151.725 96.1621 151.495 96.2621 151.195 96.2621H142.945ZM142.945 87.9521V85.8821H152.905C152.965 85.9621 153.025 86.0921 153.085 86.2721C153.145 86.4521 153.175 86.6421 153.175 86.8421C153.175 87.1621 153.095 87.4321 152.935 87.6521C152.775 87.8521 152.545 87.9521 152.245 87.9521H142.945ZM141.625 93.4421H144.085V104.092C143.985 104.112 143.825 104.142 143.605 104.182C143.405 104.242 143.195 104.272 142.975 104.272C142.535 104.272 142.195 104.182 141.955 104.002C141.735 103.822 141.625 103.552 141.625 103.192V93.4421ZM170.817 95.0021C170.817 97.0821 170.437 98.8321 169.677 100.252C168.917 101.652 167.877 102.712 166.557 103.432C165.257 104.152 163.777 104.512 162.117 104.512C160.477 104.512 158.997 104.152 157.677 103.432C156.357 102.712 155.317 101.652 154.557 100.252C153.797 98.8321 153.417 97.0821 153.417 95.0021C153.417 92.9221 153.807 91.1821 154.587 89.7821C155.367 88.3621 156.407 87.2921 157.707 86.5721C159.027 85.8521 160.497 85.4921 162.117 85.4921C163.757 85.4921 165.227 85.8521 166.527 86.5721C167.847 87.2921 168.887 88.3621 169.647 89.7821C170.427 91.1821 170.817 92.9221 170.817 95.0021ZM168.327 95.0021C168.327 92.6221 167.757 90.7921 166.617 89.5121C165.497 88.2121 163.997 87.5621 162.117 87.5621C160.257 87.5621 158.757 88.2121 157.617 89.5121C156.497 90.7921 155.937 92.6221 155.937 95.0021C155.937 97.3821 156.497 99.2221 157.617 100.522C158.737 101.802 160.237 102.442 162.117 102.442C164.017 102.442 165.527 101.802 166.647 100.522C167.767 99.2221 168.327 97.3821 168.327 95.0021ZM175.48 95.1821H178.93C180.41 95.1821 181.57 94.8621 182.41 94.2221C183.25 93.5821 183.67 92.6321 183.67 91.3721C183.67 90.1321 183.23 89.1921 182.35 88.5521C181.47 87.9121 180.21 87.5921 178.57 87.5921C178.03 87.5921 177.48 87.6221 176.92 87.6821C176.38 87.7221 175.9 87.7821 175.48 87.8621V95.1821ZM178.93 97.2221H173.05V87.2021C173.05 86.8821 173.13 86.6421 173.29 86.4821C173.47 86.3021 173.72 86.1621 174.04 86.0621C174.62 85.8821 175.33 85.7521 176.17 85.6721C177.03 85.5921 177.86 85.5521 178.66 85.5521C181.16 85.5521 183.03 86.0621 184.27 87.0821C185.51 88.1021 186.13 89.5321 186.13 91.3721C186.13 92.5521 185.86 93.5821 185.32 94.4621C184.78 95.3421 183.98 96.0221 182.92 96.5021C181.86 96.9821 180.53 97.2221 178.93 97.2221ZM178.99 96.4421L180.79 95.5421C181.35 96.2421 181.93 96.9721 182.53 97.7321C183.13 98.4921 183.71 99.2321 184.27 99.9521C184.83 100.672 185.33 101.322 185.77 101.902C186.21 102.462 186.55 102.902 186.79 103.222C186.71 103.562 186.53 103.832 186.25 104.032C185.99 104.232 185.72 104.332 185.44 104.332C185.1 104.332 184.82 104.252 184.6 104.092C184.38 103.912 184.15 103.662 183.91 103.342L178.99 96.4421ZM173.05 96.5621H175.51V104.062C175.39 104.102 175.23 104.142 175.03 104.182C174.83 104.242 174.61 104.272 174.37 104.272C173.93 104.272 173.6 104.182 173.38 104.002C173.16 103.822 173.05 103.542 173.05 103.162V96.5621ZM198.879 99.3821C198.739 99.4821 198.549 99.5721 198.309 99.6521C198.089 99.7321 197.839 99.7721 197.559 99.7721C197.239 99.7721 196.949 99.7221 196.689 99.6221C196.449 99.5221 196.279 99.3621 196.179 99.1421C195.119 96.9021 194.189 94.8521 193.389 92.9921C192.609 91.1321 191.979 89.5921 191.499 88.3721H191.379C191.319 89.8721 191.249 91.2721 191.169 92.5721C191.109 93.8721 191.039 95.1321 190.959 96.3521C190.879 97.5521 190.799 98.7921 190.719 100.072C190.659 101.332 190.579 102.682 190.479 104.122C190.359 104.162 190.199 104.202 189.999 104.242C189.819 104.282 189.619 104.302 189.399 104.302C188.959 104.302 188.649 104.212 188.469 104.032C188.289 103.832 188.199 103.572 188.199 103.252C188.199 103.012 188.219 102.462 188.259 101.602C188.319 100.722 188.379 99.6521 188.439 98.3921C188.519 97.1321 188.609 95.7921 188.709 94.3721C188.809 92.9321 188.909 91.5221 189.009 90.1421C189.129 88.7421 189.239 87.4821 189.339 86.3621C189.499 86.2221 189.729 86.0921 190.029 85.9721C190.329 85.8521 190.669 85.7921 191.049 85.7921C191.509 85.7921 191.899 85.8821 192.219 86.0621C192.539 86.2421 192.789 86.5221 192.969 86.9021C193.489 87.9221 194.009 89.0321 194.529 90.2321C195.049 91.4321 195.559 92.6321 196.059 93.8321C196.559 95.0321 197.039 96.1621 197.499 97.2221H197.619C198.499 95.1021 199.369 93.0621 200.229 91.1021C201.109 89.1421 201.849 87.4721 202.449 86.0921C202.629 85.9921 202.859 85.9221 203.139 85.8821C203.419 85.8221 203.679 85.7921 203.919 85.7921C204.379 85.7921 204.739 85.8721 204.999 86.0321C205.279 86.1721 205.459 86.4121 205.539 86.7521C205.619 87.0921 205.709 87.6721 205.809 88.4921C205.909 89.3121 206.009 90.2821 206.109 91.4021C206.209 92.5021 206.299 93.6621 206.379 94.8821C206.479 96.1021 206.569 97.3021 206.649 98.4821C206.729 99.6621 206.799 100.732 206.859 101.692C206.939 102.632 206.989 103.382 207.009 103.942C206.829 104.062 206.639 104.152 206.439 104.212C206.239 104.272 206.009 104.302 205.749 104.302C205.449 104.302 205.179 104.232 204.939 104.092C204.719 103.932 204.589 103.652 204.549 103.252C204.429 101.312 204.309 99.4021 204.189 97.5221C204.089 95.6221 203.999 93.8821 203.919 92.3021C203.839 90.7221 203.769 89.4321 203.709 88.4321H203.589C203.149 89.5321 202.549 90.9521 201.789 92.6921C201.029 94.4121 200.059 96.6421 198.879 99.3821ZM216.224 87.7721H216.104C215.804 88.6121 215.444 89.6121 215.024 90.7721C214.624 91.9321 214.204 93.1321 213.764 94.3721C213.344 95.5921 212.944 96.7321 212.564 97.7921L212.414 98.2421C212.294 98.6021 212.144 99.0521 211.964 99.5921C211.784 100.132 211.594 100.702 211.394 101.302C211.194 101.882 211.004 102.432 210.824 102.952C210.644 103.452 210.504 103.862 210.404 104.182C210.264 104.242 210.114 104.282 209.954 104.302C209.814 104.342 209.634 104.362 209.414 104.362C209.094 104.362 208.804 104.282 208.544 104.122C208.304 103.942 208.184 103.662 208.184 103.282C208.184 103.102 208.214 102.922 208.274 102.742C208.334 102.542 208.404 102.332 208.484 102.112C208.724 101.432 209.014 100.602 209.354 99.6221C209.714 98.6421 210.104 97.5721 210.524 96.4121C210.944 95.2521 211.384 94.0621 211.844 92.8421C212.304 91.6221 212.754 90.4321 213.194 89.2721C213.634 88.1121 214.044 87.0521 214.424 86.0921C214.584 86.0121 214.824 85.9321 215.144 85.8521C215.464 85.7721 215.794 85.7321 216.134 85.7321C216.534 85.7321 216.914 85.7921 217.274 85.9121C217.654 86.0321 217.894 86.2321 217.994 86.5121C218.474 87.6721 218.984 88.9921 219.524 90.4721C220.084 91.9321 220.644 93.4621 221.204 95.0621C221.764 96.6421 222.294 98.1821 222.794 99.6821C223.314 101.182 223.774 102.542 224.174 103.762C224.034 103.942 223.844 104.082 223.604 104.182C223.384 104.302 223.134 104.362 222.854 104.362C222.474 104.362 222.184 104.282 221.984 104.122C221.784 103.942 221.614 103.652 221.474 103.252L219.824 98.3621L219.584 97.5221C219.184 96.3021 218.764 95.0721 218.324 93.8321C217.904 92.5921 217.504 91.4421 217.124 90.3821C216.764 89.3221 216.464 88.4521 216.224 87.7721ZM211.244 99.2621L212.024 97.2521H220.394L220.874 99.2621H211.244ZM225.608 87.9521L227.648 87.7721C227.728 88.3921 227.798 89.1221 227.858 89.9621C227.918 90.8021 227.958 91.6721 227.978 92.5721C228.018 93.4521 228.038 94.2921 228.038 95.0921V104.062C227.938 104.102 227.778 104.142 227.558 104.182C227.358 104.242 227.148 104.272 226.928 104.272C226.488 104.272 226.158 104.192 225.938 104.032C225.718 103.852 225.608 103.572 225.608 103.192V87.9521ZM240.068 102.052L237.998 102.232C237.798 100.552 237.678 98.8421 237.638 97.1021C237.618 95.3421 237.608 93.6421 237.608 92.0021V85.9421C237.728 85.9021 237.888 85.8621 238.088 85.8221C238.288 85.7621 238.508 85.7321 238.748 85.7321C239.188 85.7321 239.518 85.8221 239.738 86.0021C239.958 86.1621 240.068 86.4321 240.068 86.8121V102.052ZM240.068 101.152V103.792C239.888 103.932 239.658 104.052 239.378 104.152C239.098 104.252 238.788 104.302 238.448 104.302C237.968 104.302 237.558 104.212 237.218 104.032C236.878 103.832 236.568 103.482 236.288 102.982L230.588 93.3821C230.288 92.8421 229.958 92.2521 229.598 91.6121C229.238 90.9521 228.898 90.3321 228.578 89.7521C228.258 89.1521 228.008 88.6621 227.828 88.2821L225.608 88.8521V86.2421C225.768 86.0821 225.988 85.9521 226.268 85.8521C226.568 85.7521 226.888 85.7021 227.228 85.7021C227.708 85.7021 228.118 85.8021 228.458 86.0021C228.798 86.1821 229.108 86.5221 229.388 87.0221L235.118 96.6221C235.438 97.1621 235.768 97.7621 236.108 98.4221C236.468 99.0621 236.798 99.6821 237.098 100.282C237.398 100.862 237.638 101.342 237.818 101.722L240.068 101.152ZM256.633 87.8921C256.633 88.1521 256.543 88.3921 256.363 88.6121C256.203 88.8121 256.013 88.9621 255.793 89.0621C255.293 88.7021 254.683 88.3621 253.963 88.0421C253.263 87.7221 252.353 87.5621 251.233 87.5621C250.013 87.5621 248.913 87.8421 247.933 88.4021C246.973 88.9621 246.203 89.8021 245.623 90.9221C245.063 92.0221 244.783 93.3921 244.783 95.0321C244.783 97.4921 245.383 99.3421 246.583 100.582C247.803 101.822 249.383 102.442 251.323 102.442C252.363 102.442 253.273 102.292 254.053 101.992C254.833 101.692 255.473 101.352 255.973 100.972C256.173 101.052 256.363 101.202 256.543 101.422C256.723 101.622 256.813 101.862 256.813 102.142C256.813 102.342 256.753 102.542 256.633 102.742C256.533 102.922 256.353 103.102 256.093 103.282C255.633 103.602 255.003 103.882 254.203 104.122C253.403 104.382 252.383 104.512 251.143 104.512C249.483 104.512 247.973 104.162 246.613 103.462C245.273 102.742 244.213 101.682 243.433 100.282C242.653 98.8821 242.263 97.1321 242.263 95.0321C242.263 92.9321 242.663 91.1721 243.463 89.7521C244.283 88.3321 245.353 87.2721 246.673 86.5721C248.013 85.8521 249.473 85.4921 251.053 85.4921C252.153 85.4921 253.123 85.6121 253.963 85.8521C254.803 86.0921 255.453 86.4021 255.913 86.7821C256.393 87.1421 256.633 87.5121 256.633 87.8921ZM258.849 93.1421H261.279V103.882C261.199 103.902 261.049 103.952 260.829 104.032C260.609 104.092 260.389 104.122 260.169 104.122C259.769 104.122 259.449 104.002 259.209 103.762C258.969 103.502 258.849 103.182 258.849 102.802V93.1421ZM261.279 96.6821L258.849 96.6521V87.2021C258.849 86.8021 258.969 86.4821 259.209 86.2421C259.449 86.0021 259.769 85.8821 260.169 85.8821C260.389 85.8821 260.609 85.9121 260.829 85.9721C261.049 86.0321 261.199 86.0821 261.279 86.1221V96.6821ZM260.169 95.7821V93.7421H269.199C269.259 93.8221 269.319 93.9521 269.379 94.1321C269.439 94.3121 269.469 94.5021 269.469 94.7021C269.469 95.0221 269.389 95.2821 269.229 95.4821C269.069 95.6821 268.839 95.7821 268.539 95.7821H260.169ZM260.169 104.122V102.082H270.279C270.339 102.162 270.399 102.292 270.459 102.472C270.519 102.632 270.549 102.822 270.549 103.042C270.549 103.362 270.469 103.622 270.309 103.822C270.149 104.022 269.919 104.122 269.619 104.122H260.169ZM260.169 87.9521V85.8821H270.129C270.189 85.9621 270.249 86.0921 270.309 86.2721C270.369 86.4521 270.399 86.6421 270.399 86.8421C270.399 87.1621 270.319 87.4321 270.159 87.6521C269.999 87.8521 269.769 87.9521 269.469 87.9521H260.169Z" fill="#1C3C2E"/>
</svg>
