<svg width="200" height="200" viewBox="0 0 200 200" fill="none" xmlns="http://www.w3.org/2000/svg">
<path d="M106.726 29.2945C94.3996 28.4245 82.0626 30.833 70.9685 36.2753C59.8745 41.7176 50.4187 49.9996 43.5622 60.2799C36.7056 70.5601 32.6926 82.4722 31.9309 94.8058C31.1692 107.139 33.6859 119.455 39.2253 130.501C44.7648 141.546 53.1295 150.929 63.4696 157.695C73.8096 164.461 85.7565 168.369 98.0963 169.023C110.436 169.676 122.729 167.052 133.726 161.415C144.722 155.779 154.031 147.332 160.706 136.933C143.576 97.834 117.818 90.9321 83.4322 116.228" stroke="#1C3C2E" stroke-width="20" stroke-linecap="round"/>
<path d="M117 146C123.627 146 129 140.627 129 134C129 127.373 123.627 122 117 122C110.373 122 105 127.373 105 134C105 140.627 110.373 146 117 146Z" fill="#1C3C2E"/>
</svg>
